<mxfile host="app.diagrams.net" modified="2022-03-03T13:46:08.045Z" agent="5.0 (Windows NT 10.0; Win64; x64) AppleWebKit/537.36 (KHTML, like Gecko) Chrome/98.0.4758.102 Safari/537.36" etag="pORCMAk_FSVGkUASvmmk" version="16.5.6" type="github">
  <diagram id="c4dD5m3eZ78O99NW7Sv5" name="第 1 页">
    <mxGraphModel dx="611" dy="572" grid="1" gridSize="10" guides="1" tooltips="1" connect="1" arrows="1" fold="1" page="1" pageScale="1" pageWidth="827" pageHeight="1169" math="0" shadow="0">
      <root>
        <mxCell id="0" />
        <mxCell id="1" parent="0" />
        <mxCell id="M7tG_Qng9T_QMlYk3fe1-1" value="Input(640,640,3)" style="rounded=0;whiteSpace=wrap;html=1;" vertex="1" parent="1">
          <mxGeometry x="240" y="39" width="130" height="20" as="geometry" />
        </mxCell>
        <mxCell id="M7tG_Qng9T_QMlYk3fe1-2" value="Focus(3,64,1,1)" style="rounded=0;whiteSpace=wrap;html=1;fillColor=#f5f5f5;strokeColor=#666666;fontColor=#333333;" vertex="1" parent="1">
          <mxGeometry x="240" y="89" width="130" height="20" as="geometry" />
        </mxCell>
        <mxCell id="M7tG_Qng9T_QMlYk3fe1-3" value="Conv(64,128,3,2)" style="rounded=0;whiteSpace=wrap;html=1;fillColor=#dae8fc;strokeColor=#6c8ebf;" vertex="1" parent="1">
          <mxGeometry x="240" y="139" width="130" height="20" as="geometry" />
        </mxCell>
        <mxCell id="M7tG_Qng9T_QMlYk3fe1-4" value="C3(128,128)*3" style="rounded=0;whiteSpace=wrap;html=1;fillColor=#ffe6cc;strokeColor=#d79b00;" vertex="1" parent="1">
          <mxGeometry x="240" y="189" width="130" height="20" as="geometry" />
        </mxCell>
        <mxCell id="M7tG_Qng9T_QMlYk3fe1-5" value="Conv(128,256,3,2)" style="rounded=0;whiteSpace=wrap;html=1;fillColor=#dae8fc;strokeColor=#6c8ebf;" vertex="1" parent="1">
          <mxGeometry x="240" y="239" width="130" height="20" as="geometry" />
        </mxCell>
        <mxCell id="M7tG_Qng9T_QMlYk3fe1-6" value="C3(256,256)*9" style="rounded=0;whiteSpace=wrap;html=1;fillColor=#ffe6cc;strokeColor=#d79b00;" vertex="1" parent="1">
          <mxGeometry x="240" y="289" width="130" height="20" as="geometry" />
        </mxCell>
        <mxCell id="M7tG_Qng9T_QMlYk3fe1-7" value="Conv(256,512,3,2)" style="rounded=0;whiteSpace=wrap;html=1;fillColor=#dae8fc;strokeColor=#6c8ebf;" vertex="1" parent="1">
          <mxGeometry x="240" y="339" width="130" height="20" as="geometry" />
        </mxCell>
        <mxCell id="M7tG_Qng9T_QMlYk3fe1-8" value="C3(512,512)*9" style="rounded=0;whiteSpace=wrap;html=1;fillColor=#ffe6cc;strokeColor=#d79b00;" vertex="1" parent="1">
          <mxGeometry x="240" y="389" width="130" height="20" as="geometry" />
        </mxCell>
        <mxCell id="M7tG_Qng9T_QMlYk3fe1-9" value="Conv(512,1024,3,2)" style="rounded=0;whiteSpace=wrap;html=1;fillColor=#dae8fc;strokeColor=#6c8ebf;" vertex="1" parent="1">
          <mxGeometry x="240" y="439" width="130" height="20" as="geometry" />
        </mxCell>
        <mxCell id="M7tG_Qng9T_QMlYk3fe1-12" value="&lt;font style=&quot;font-size: 11px&quot;&gt;SPP(512,1024,[5,9,13])&lt;/font&gt;" style="rounded=0;whiteSpace=wrap;html=1;fillColor=#e1d5e7;strokeColor=#9673a6;" vertex="1" parent="1">
          <mxGeometry x="240" y="489" width="130" height="20" as="geometry" />
        </mxCell>
        <mxCell id="M7tG_Qng9T_QMlYk3fe1-13" value="C3(512,512)*9" style="rounded=0;whiteSpace=wrap;html=1;fillColor=#ffe6cc;strokeColor=#d79b00;" vertex="1" parent="1">
          <mxGeometry x="240" y="539" width="130" height="20" as="geometry" />
        </mxCell>
      </root>
    </mxGraphModel>
  </diagram>
</mxfile>
